inDegrees=no
num_controls=7
num_derivatives=13
num_iterations=134
num_multipliers=7
num_parameters=0
num_slacks=7
num_states=26
objective=0.544487
objective_accelerations=0.015410
objective_balance=0.002822
objective_effort=0.021773
objective_height=0.301279
objective_ligament=0.203204
solver_duration=1472.850649
status=Solve_Succeeded
success=true
DataType=double
version=3
OpenSimVersion=4.5
endheader
time	/jointset/ground_pelvis/pelvis_tilt/value	/jointset/ground_pelvis/pelvis_tx/value	/jointset/ground_pelvis/pelvis_ty/value	/jointset/hip_r/hip_flexion_r/value	/jointset/hip_r/hip_adduction_r/value	/jointset/hip_r/hip_rotation_r/value	/jointset/back/lumbar_extension/value	/jointset/patellofemoral_r/patellar_flexion_r/value	/jointset/knee_r/knee_flexion_r/value	/jointset/knee_r/knee_adduction_r/value	/jointset/knee_r/knee_rotation_r/value	/jointset/ankle_r/ankle_angle_r/value	/jointset/subtalar_r/subtalar_angle_r/value	/jointset/ground_pelvis/pelvis_tilt/speed	/jointset/ground_pelvis/pelvis_tx/speed	/jointset/ground_pelvis/pelvis_ty/speed	/jointset/hip_r/hip_flexion_r/speed	/jointset/hip_r/hip_adduction_r/speed	/jointset/hip_r/hip_rotation_r/speed	/jointset/back/lumbar_extension/speed	/jointset/patellofemoral_r/patellar_flexion_r/speed	/jointset/knee_r/knee_flexion_r/speed	/jointset/knee_r/knee_adduction_r/speed	/jointset/knee_r/knee_rotation_r/speed	/jointset/ankle_r/ankle_angle_r/speed	/jointset/subtalar_r/subtalar_angle_r/speed	/forceset/tau_hip_flexion_r	/forceset/tau_hip_adduction_r	/forceset/tau_hip_rotation_r	/forceset/tau_knee_flexion_r	/forceset/tau_ankle_angle_r	/forceset/tau_subtalar_angle_r	/forceset/tau_lumbar_extension	lambda_cid13_p0	lambda_cid14_p0	lambda_cid14_p1	lambda_cid14_p2	lambda_cid14_p3	lambda_cid14_p4	lambda_cid14_p5	/jointset/ground_pelvis/pelvis_tilt/accel	/jointset/ground_pelvis/pelvis_tx/accel	/jointset/ground_pelvis/pelvis_ty/accel	/jointset/hip_r/hip_flexion_r/accel	/jointset/hip_r/hip_adduction_r/accel	/jointset/hip_r/hip_rotation_r/accel	/jointset/back/lumbar_extension/accel	/jointset/patellofemoral_r/patellar_flexion_r/accel	/jointset/knee_r/knee_flexion_r/accel	/jointset/knee_r/knee_adduction_r/accel	/jointset/knee_r/knee_rotation_r/accel	/jointset/ankle_r/ankle_angle_r/accel	/jointset/subtalar_r/subtalar_angle_r/accel	gamma_cid13_p0	gamma_cid14_p0	gamma_cid14_p1	gamma_cid14_p2	gamma_cid14_p3	gamma_cid14_p4	gamma_cid14_p5
0.5	-0.1925278201937416	0.01470911808311083	0.8672176545985852	0.7507428813496249	-0.1985102573570954	-0.1915193797023879	-0.6446114811435322	0.5848414265031526	0.584841426503074	-0.02184711217003312	0.1743362171287727	0.1064552914855895	0.1055530782658477	-0.6134442752462004	-0.2218587517275641	-0.2370378211884181	1.464539503061961	-0.06406862522871395	0.2143996088404687	-0.7381434285535504	0.900094166089815	0.9000941660898379	-0.03898827675249818	0.0001247030901312089	0.05374399018753656	-0.06680347376786522	-0.2308991911311845	0.04390045839456588	0.004950444032152713	-0.1530121345429966	0.01364180297560463	-0.02727459465400018	0.259626846177204	-26.14983665998437	-40.76057804862179	-15.03162389609742	-1.69416641964089	0.118130155156512	-656.4391617209116	35.53605251039964	0.1534099767216377	0.4789639316897286	-0.05118556780670546	-1.162535496450797	0.009741564403085287	-0.1198910135053177	1.7231402027453	-0.8982790077886256	-0.8982790077885576	0.3763899869409957	0.00287841062794639	0.06573808436681816	0.0301554019123763	-1.484178524228458e-08	-6.127765310322001e-09	8.31270988386102e-08	-7.66137206830864e-08	-8.445250057244896e-09	-2.785298500512709e-08	1.797993474826327e-08
0.51	-0.198653577700178	0.01251469672023275	0.8648452184593727	0.7653280098713756	-0.1991504824070024	-0.1893817185315718	-0.6519059505562075	0.5937962609998557	0.5937962609998008	-0.02221801334648209	0.1743378508902965	0.1069959142607899	0.1048864879823531	-0.6116124684839022	-0.2170049147285791	-0.2373993880692561	1.452284629253255	-0.06395970164588353	0.213102662789496	-0.7206585308608887	0.890754595022911	0.890754595022928	-0.03521527871109759	0.0002024201993451719	0.0543751959163826	-0.06649489162146976	-0.2384781145767045	0.0452043616934238	0.004997234508264128	-0.1524815319551043	0.01184658575400815	-0.02683533736228299	0.2658339942656907	-25.82610978435236	-41.47951108996296	-14.98584777402689	-1.679632283790771	0.1834480600469794	-659.39050892695	35.33236840419493	0.2122783086584521	0.4916828298702441	-0.02114438101735737	-1.2872008271105	0.0139721965740232	-0.1391111137817282	1.774953020618111	-0.9695139202327727	-0.969513920233686	0.374267619106582	0.0102572262911042	0.06100431470754106	0.03416657450273197	-1.47713452203438e-08	-6.479946793780219e-09	7.585984621437753e-08	-7.733574013466017e-08	-8.339814438822074e-09	-2.159249660311922e-08	1.463633637446398e-08
0.52	-0.2047581746824548	0.01036943157651802	0.8624706662247927	0.7797845421542349	-0.1997891173328102	-0.1872579297638388	-0.6590228132983378	0.6026541562330737	0.6026541562330352	-0.02255188196124078	0.1743402695959583	0.107542687592791	0.1042235749110225	-0.6092121704146267	-0.2120275078948947	-0.2374610402618972	1.43882025528335	-0.06375060040902268	0.2116251282229871	-0.7026220944445686	0.8807063133923475	0.8807063133923586	-0.03158176441501699	0.000281691917479148	0.05497410154778967	-0.06606803133509127	-0.2460570380222214	0.04650826499230211	0.005044024984347696	-0.1519509293672177	0.01005136853241589	-0.02639608007053818	0.2720411423541775	-25.49593926690159	-42.20251528903066	-14.94007842395622	-1.665903667252092	0.2410217589417092	-662.4087693928262	35.14501962361943	0.2671082381171354	0.5036778986295617	0.008797369832669448	-1.404435528690388	0.0297770952091647	-0.156008716612537	1.833447947477026	-1.040021120520521	-1.040021120520469	0.3484932378769977	0.003189332411943812	0.05927806487898355	0.05381102990897618	-1.461130878722059e-08	-6.646229628309012e-09	6.909678255761332e-08	-7.710175053697812e-08	-8.299436163734093e-09	-1.551097694064935e-08	1.157778710600485e-08
0.53	-0.2108359918540219	0.00827449805838699	0.8600969875566324	0.7941005750093806	-0.2004251233808165	-0.1851498055441828	-0.66595666016886	0.6114081166024438	0.6114081166024219	-0.0228502272036008	0.1743434376726423	0.1080952745713911	0.1035655645846498	-0.6062581877743126	-0.2069440256133372	-0.2372246496925927	1.424195510631393	-0.063430545211631	0.2099673923232534	-0.6840707220945621	0.8699726716537897	0.8699726716538334	-0.02812160250875366	0.0003497516224002686	0.05553569232886221	-0.06551066248080878	-0.2533949991690742	0.04770312382211611	0.005099177022422384	-0.151539910403319	0.00836405543865131	-0.0259755552297518	0.2780040661020995	-25.16033895425298	-42.88841777039657	-14.89813406476621	-1.649068515934597	0.3203363098996497	-665.3388847897229	34.96887866807468	0.3235030212117766	0.5129572548710217	0.03856398877029504	-1.520116500200466	0.03612949499473994	-0.1755235401618742	1.87746551355858	-1.106996119263356	-1.106996119258479	0.3396386100030002	0.00827210394975943	0.05345739401990315	0.06020670332540649	-1.442428014674374e-08	-6.74633543636503e-09	6.269580145064805e-08	-7.649292557257355e-08	-8.264004848864706e-09	-9.674879389099818e-09	8.656139563933208e-09
0.54	-0.2168814772503398	0.006230854135462002	0.8577271736118234	0.8082646359046578	-0.2010573269242504	-0.1830592321862213	-0.6727026965889229	0.620051348470682	0.6200513484706711	-0.0231149986382948	0.1743472179092604	0.1086532490196612	0.1029138293248475	-0.6027458153650737	-0.201769588853686	-0.2366880955916519	1.408425863309352	-0.06299009949462514	0.2081149558831988	-0.6650600043527133	0.858560613165634	0.8585606131657103	-0.02486700288240958	0.0004041239040246624	0.05605159548187455	-0.0648130180210266	-0.2607329603159237	0.04889798265194856	0.005154329060472088	-0.1511288914394252	0.006676742344890546	-0.02555503038894048	0.2839669898500223	-24.82030607764649	-43.57875522092199	-14.85602198577593	-1.633338750358388	0.3901771824284118	-668.342618723035	34.81032475213154	0.3787861919021036	0.5218687942482579	0.06883007615990852	-1.633416062707086	0.05385519913199454	-0.1949488246767072	1.925317025845465	-1.175704470440071	-1.175704470440056	0.3073807818931577	0.0004518477525955389	0.05014053926689863	0.08186615100889964	-1.420738778749263e-08	-6.773224108749042e-09	5.669542231367311e-08	-7.546938913860363e-08	-8.234046766577595e-09	-4.110312683674921e-09	5.885957761694523e-09
0.55	-0.2228890928893936	0.004239364136243733	0.8553642081040769	0.8222654429230021	-0.2016845946093118	-0.1809880746851766	-0.6792564148193008	0.6285772261448416	0.6285772261448613	-0.02334812686653138	0.1743514754706491	0.1092161566094784	0.10226968299142	-0.5986834650874958	-0.1965171646563268	-0.2358557554193439	1.391552792584332	-0.0624510553817466	0.2060897018444721	-0.6456210901551859	0.8465140447644136	0.846514044764484	-0.02177909177439324	0.0004479722992937334	0.05652187345484972	-0.06400274666121074	-0.2678175710705196	0.04988401146572895	0.00521976309763709	-0.1508203651196352	0.005088885447006169	-0.02508767269483235	0.2896772236214788	-24.47682191116842	-44.22692567108422	-14.78708627884844	-1.620858432132742	0.4664145529174761	-671.2126684205506	34.72027407378816	0.4340346537417296	0.5286145388823376	0.09782335348176192	-1.741666557283254	0.05578511645373248	-0.2103575959373731	1.9625613518573	-1.23426174243512	-1.234261742436036	0.306435739947954	0.006423141144484435	0.04426238831981003	0.08263244326093419	-1.388853181587395e-08	-6.633505863035674e-09	5.113858097255648e-08	-7.365785804606951e-08	-8.227664503370236e-09	1.143214751532226e-09	3.48660475147313e-09
0.5600000000000001	-0.2288532699840591	0.002300735440279613	0.8530110434711964	0.8360920364381208	-0.202306100633427	-0.1789379785050074	-0.6856138673606731	0.6369796123914963	0.6369796123915403	-0.02355098809074614	0.1743561858771378	0.1097835251714262	0.1016340443345493	-0.5940581064876786	-0.1911973282028565	-0.2347279206184149	1.373583162663959	-0.06183776730535821	0.2039026917070793	-0.6258068665516242	0.8338623276643089	0.8338623276643731	-0.01881360207869285	0.0004946929237804771	0.05694378990810354	-0.0631114827096758	-0.274902181825112	0.05087004027952754	0.005285197134773813	-0.1505118387998504	0.00350102854912553	-0.02462031500069954	0.2953874573929362	-24.1308344808555	-44.87992990592035	-14.71780195330783	-1.609798721026158	0.5315535127836656	-674.1631961987009	34.64890439196082	0.4913878563499366	0.5353512454704235	0.1279290018840918	-1.852727901777665	0.06870399183395506	-0.2273000444099053	2.000378907052278	-1.296734210216949	-1.296734210216959	0.2828964994299806	0.001026293596129258	0.0404682353225817	0.09806466935269384	-1.344731950941419e-08	-6.293859315605455e-09	4.611398498646981e-08	-7.090073336325837e-08	-8.249573223058578e-09	6.023495062478087e-09	1.532246291672473e-09
0.5700000000000001	-0.2347684517408808	0.0004155889658710499	0.850670615740981	0.8497336447233098	-0.2029210599424582	-0.1769105714769922	-0.6917714085187909	0.645252538740449	0.6452525387404556	-0.02372493540905141	0.1743613403545767	0.1103548580169553	0.1010077739490716	-0.5888864938147707	-0.1858254178693811	-0.2333092714835308	1.354566695164439	-0.06113852640773992	0.2015487949884586	-0.6056549469180689	0.8206273001686987	0.8206273001688007	-0.01600691485573504	0.0005350412920768156	0.05731287885842597	-0.06212551083923764	-0.2816723561907	0.05174221164887553	0.005359402523258204	-0.1503126066244666	0.00202638597152132	-0.02417163711903447	0.3007868226948573	-23.78326687093663	-45.48861402517298	-14.65099712894264	-1.595914112460942	0.6195849146098558	-676.9374332689429	34.58487693289361	0.5438087000133855	0.539091596207414	0.1560877172533639	-1.951877719767349	0.07286732383328487	-0.2439379476541616	2.029561214589714	-1.351230673331035	-1.351230673325339	0.2749021682680508	0.005350416752142748	0.033642745515718	0.1014245511705769	-1.298851263846115e-08	-5.891135012048732e-09	4.158315102100524e-08	-6.783720879190631e-08	-8.2897108575726e-09	1.059123427359136e-08	-2.031708966853332e-10
0.58	-0.2406291652255216	-0.001415642271418452	0.8483458254717071	0.8631799340243594	-0.2035285602054928	-0.1749076041085701	-0.6977260379359566	0.6533902460836283	0.6533902460835904	-0.02387174638821552	0.1743668605773606	0.1109295844561127	0.1003918755033547	-0.5831644520517811	-0.1804142807790441	-0.2316004284301317	1.334519365835791	-0.06034595810582896	0.1990147597872001	-0.5852245183612141	0.8068185265091699	0.80681852650931	-0.01338633425120195	0.0005678419926042868	0.05762250863389352	-0.06103709475755242	-0.2884425305562834	0.05261438301824301	0.00543360791170649	-0.1501133744490886	0.0005517433939210815	-0.02372295923734275	0.3061861879967803	-23.43501306012063	-46.10249486153342	-14.58371394721002	-1.583691552126858	0.6949969606778749	-679.7987820557082	34.5402852074313	0.6014736743662682	0.5431965968427122	0.1859677855870966	-2.058900267603362	0.0873694726924763	-0.2633277409374496	2.056080691712156	-1.411483443000683	-1.41148344300065	0.2456751757450562	-0.0004832399576431253	0.02857640035155417	0.118553511602081	-1.2506791916075e-08	-5.406262933071453e-09	3.76953559661183e-08	-6.437465180757076e-08	-8.35358847418518e-09	1.475194321515518e-08	-1.653455266419884e-09
